<svg xmlns="http://www.w3.org/2000/svg" viewBox="0 0 100 100">
  <rect width="100" height="100" rx="20" fill="url(#grad)" />
  <path d="M50 25 A25 25 0 0 1 75 50 A25 25 0 0 1 50 75 A25 25 0 0 1 25 50 A25 25 0 0 1 50 25 Z M50 35 A15 15 0 0 0 35 50 A15 15 0 0 0 50 65 A15 15 0 0 0 65 50 A15 15 0 0 0 50 35 Z" fill="white" opacity="0.8"/>
  <circle cx="50" cy="50" r="10" fill="white" />
  <defs>
    <linearGradient id="grad" x1="0%" y1="0%" x2="100%" y2="100%">
      <stop offset="0%" style="stop-color:#4F46E5;stop-opacity:1" />
      <stop offset="100%" style="stop-color:#06B6D4;stop-opacity:1" />
    </linearGradient>
  </defs>
</svg>